<svg width="18" height="18" viewBox="0 0 18 18" fill="none" xmlns="http://www.w3.org/2000/svg">
<path d="M8.96771 4.7542C6.63833 4.7542 4.75945 6.63308 4.75945 8.96246C4.75945 11.2918 6.63833 13.1707 8.96771 13.1707C11.2971 13.1707 13.176 11.2918 13.176 8.96246C13.176 6.63308 11.2971 4.7542 8.96771 4.7542ZM8.96771 11.6984C7.4624 11.6984 6.23179 10.4714 6.23179 8.96246C6.23179 7.45349 7.45874 6.22654 8.96771 6.22654C10.4767 6.22654 11.7036 7.45349 11.7036 8.96246C11.7036 10.4714 10.473 11.6984 8.96771 11.6984V11.6984ZM14.3297 4.58206C14.3297 5.12778 13.8902 5.56362 13.3481 5.56362C12.8024 5.56362 12.3665 5.12411 12.3665 4.58206C12.3665 4.04 12.8061 3.6005 13.3481 3.6005C13.8902 3.6005 14.3297 4.04 14.3297 4.58206ZM17.1169 5.57827C17.0546 4.26342 16.7543 3.09873 15.791 2.13914C14.8314 1.17955 13.6668 0.879226 12.3519 0.8133C10.9968 0.736387 6.935 0.736387 5.57986 0.8133C4.26867 0.875564 3.10398 1.17589 2.14073 2.13548C1.17748 3.09506 0.880813 4.25975 0.814887 5.57461C0.737974 6.92975 0.737974 10.9915 0.814887 12.3466C0.87715 13.6615 1.17748 14.8262 2.14073 15.7858C3.10398 16.7454 4.265 17.0457 5.57986 17.1116C6.935 17.1885 10.9968 17.1885 12.3519 17.1116C13.6668 17.0494 14.8314 16.749 15.791 15.7858C16.7506 14.8262 17.0509 13.6615 17.1169 12.3466C17.1938 10.9915 17.1938 6.93341 17.1169 5.57827V5.57827ZM15.3662 13.8007C15.0805 14.5185 14.5275 15.0716 13.8059 15.3609C12.7255 15.7894 10.1617 15.6906 8.96771 15.6906C7.77372 15.6906 5.20628 15.7858 4.12949 15.3609C3.41163 15.0752 2.85859 14.5222 2.56925 13.8007C2.14073 12.7202 2.23962 10.1564 2.23962 8.96246C2.23962 7.76847 2.14439 5.20103 2.56925 4.12424C2.85492 3.40638 3.40797 2.85334 4.12949 2.564C5.20994 2.13548 7.77372 2.23437 8.96771 2.23437C10.1617 2.23437 12.7291 2.13914 13.8059 2.564C14.5238 2.84967 15.0768 3.40272 15.3662 4.12424C15.7947 5.20469 15.6958 7.76847 15.6958 8.96246C15.6958 10.1564 15.7947 12.7239 15.3662 13.8007Z" fill="black"/>
</svg>
