<svg width="19" height="16" viewBox="0 0 19 16" fill="none" xmlns="http://www.w3.org/2000/svg">
<path d="M16.8377 4.30126C16.8497 4.46783 16.8497 4.63444 16.8497 4.80101C16.8497 9.88169 12.9826 15.7358 5.91483 15.7358C3.73738 15.7358 1.71463 15.1052 0.0131226 14.0105C0.322498 14.0462 0.619933 14.0581 0.941211 14.0581C2.73787 14.0581 4.3918 13.4513 5.71255 12.4161C4.02295 12.3804 2.60701 11.2739 2.11916 9.75083C2.35715 9.7865 2.59511 9.81031 2.845 9.81031C3.19005 9.81031 3.53513 9.76269 3.85638 9.67944C2.09539 9.32246 0.774602 7.77565 0.774602 5.90757V5.86C1.28622 6.14557 1.8812 6.32404 2.51178 6.34781C1.4766 5.65768 0.798408 4.47973 0.798408 3.14708C0.798408 2.43318 0.988751 1.77875 1.32193 1.20761C3.21382 3.53974 6.0576 5.06273 9.24639 5.22934C9.18691 4.94378 9.15121 4.64634 9.15121 4.34887C9.15121 2.23089 10.8646 0.505615 12.9945 0.505615C14.101 0.505615 15.1005 0.96966 15.8025 1.71927C16.6711 1.5527 17.504 1.23142 18.2417 0.791184C17.9561 1.6836 17.3493 2.43321 16.5521 2.90912C17.3256 2.82587 18.0752 2.61165 18.7653 2.31422C18.2418 3.0757 17.5874 3.75389 16.8377 4.30126V4.30126Z" fill="black"/>
</svg>
